<svg width="320" height="91" viewBox="0 0 320 91" fill="none" xmlns="http://www.w3.org/2000/svg">
<path d="M283.116 90.3231L308.855 32.4292H320L295.057 90.3231H283.116ZM293.465 71.7112L274.536 32.4292H288.423L303.017 65.4475L293.465 71.7112Z" fill="#C89D83"/>
<path d="M254.887 32.4288L256.036 43.1664L255.771 41.5558C256.891 39.2293 258.425 37.2607 260.37 35.6501C262.316 33.9798 264.233 32.6972 266.12 31.8024C268.066 30.9076 269.54 30.4602 270.542 30.4602L269.923 42.9875C267.034 42.6296 264.557 43.1068 262.493 44.4192C260.429 45.7316 258.837 47.4615 257.717 49.609C256.597 51.7566 256.036 53.9638 256.036 56.2306V71.5318H243.742V32.4288H254.887Z" fill="#C89D83"/>
<path d="M213.869 72.6062C209.151 72.6062 205.142 71.7114 201.84 69.9218C198.596 68.1321 196.12 65.6565 194.41 62.4949C192.7 59.3332 191.845 55.6943 191.845 51.5782C191.845 47.6411 192.847 44.0917 194.852 40.93C196.857 37.7684 199.54 35.2629 202.901 33.4137C206.262 31.5048 210.006 30.5503 214.134 30.5503C219.677 30.5503 224.218 32.1908 227.756 35.4717C231.353 38.693 233.682 43.3758 234.743 49.5202L204.67 59.1841L201.928 52.3836L223.687 44.9567L221.122 46.1199C220.65 44.5689 219.795 43.2267 218.557 42.0933C217.377 40.9002 215.579 40.3037 213.161 40.3037C211.333 40.3037 209.712 40.7511 208.296 41.6459C206.94 42.481 205.879 43.7039 205.112 45.3146C204.405 46.8656 204.051 48.7148 204.051 50.8624C204.051 53.3082 204.493 55.3662 205.378 57.0365C206.262 58.6472 207.471 59.8701 209.004 60.7052C210.537 61.5404 212.247 61.958 214.134 61.958C215.49 61.958 216.788 61.7194 218.026 61.2421C219.323 60.7649 220.591 60.1385 221.829 59.363L227.313 68.669C225.249 69.8621 223.009 70.8166 220.591 71.5324C218.232 72.2482 215.992 72.6062 213.869 72.6062Z" fill="#C89D83"/>
<path d="M146.308 70.6002V0H158.691V70.6002H146.308ZM168.509 44.0245L186.022 70.6002H171.605L160.371 51.1829L168.509 44.0245ZM154.976 59.7731L153.738 47.8721L177.089 30.5129L184.607 37.2239L154.976 59.7731Z" fill="#C89D83"/>
<path d="M92.7696 50.5566C92.7696 46.5598 93.6835 42.9806 95.5115 39.8189C97.3985 36.6573 100.023 34.1817 103.384 32.3921C106.745 30.5428 110.607 29.6182 114.971 29.6182C119.393 29.6182 123.226 30.5428 126.469 32.3921C129.712 34.1817 132.189 36.6573 133.899 39.8189C135.668 42.9806 136.553 46.5598 136.553 50.5566C136.553 54.5534 135.668 58.1625 133.899 61.3838C132.189 64.5454 129.712 67.0509 126.469 68.9001C123.226 70.7494 119.334 71.674 114.794 71.674C110.548 71.674 106.745 70.8389 103.384 69.1686C100.081 67.4983 97.4869 65.0823 95.6 61.9207C93.713 58.759 92.7696 54.971 92.7696 50.5566ZM105.241 50.6461C105.241 52.6743 105.654 54.5236 106.479 56.1939C107.305 57.8045 108.425 59.0871 109.841 60.0416C111.256 60.996 112.848 61.4732 114.617 61.4732C116.563 61.4732 118.243 60.996 119.659 60.0416C121.074 59.0871 122.165 57.8045 122.931 56.1939C123.698 54.5236 124.081 52.6743 124.081 50.6461C124.081 48.5582 123.698 46.709 122.931 45.0983C122.165 43.4877 121.074 42.2051 119.659 41.2506C118.243 40.2962 116.563 39.8189 114.617 39.8189C112.848 39.8189 111.256 40.2962 109.841 41.2506C108.425 42.2051 107.305 43.4877 106.479 45.0983C105.654 46.709 105.241 48.5582 105.241 50.6461Z" fill="#C89D83"/>
<path d="M62.6477 29.6294C57.7123 30.0734 53.8275 31.5396 50.1458 34.3295C44.3451 38.7197 41.1313 45.9081 41.82 52.9458C41.9348 54.1103 42.2703 55.8781 42.5263 56.674C42.747 57.3778 43.2856 58.3832 43.7006 58.8775L44.0008 59.2378L44.195 58.668C45.3251 55.4006 48.4683 53.0212 52.2206 52.6106C53.1388 52.5017 54.6133 52.5855 55.3196 52.7782C55.4785 52.8201 55.6286 52.8536 55.6374 52.8369C55.6463 52.8285 55.6198 52.6106 55.5668 52.3593C55.5138 52.108 55.4962 51.3539 55.5227 50.6837C55.5668 49.3851 55.7434 48.631 56.2467 47.5419C57.0589 45.7992 58.913 44.0649 60.7671 43.3193C62.118 42.7747 62.63 42.6825 64.3694 42.6909C65.8438 42.6909 66.0116 42.7077 66.7532 42.9255C67.6979 43.202 68.7398 43.6795 69.4814 44.1822C70.0994 44.6011 71.2295 45.6903 71.6268 46.2433C72.0683 46.8632 72.6069 47.9524 72.8629 48.7316C73.0836 49.4102 73.1013 49.5778 73.1013 50.9769C73.1013 52.2755 73.0748 52.5771 72.9071 53.1552C72.6687 53.9763 72.0418 55.2414 71.5297 55.9116C71.0795 56.4981 69.9405 57.5705 69.349 57.9475C68.6868 58.3748 67.592 58.8691 66.7444 59.1121C66.0116 59.3299 65.8438 59.3467 64.3694 59.3467C62.9656 59.3551 62.7007 59.3299 62.0827 59.1624C60.4934 58.7267 59.5046 58.1905 58.0831 57.0008C57.0236 56.1127 56.3173 55.6938 55.3638 55.4089C52.5826 54.5711 49.8014 55.3335 47.8767 57.47C47.3735 58.0313 46.7289 59.2378 46.5435 60.0002C46.0844 61.8015 46.4288 63.6782 47.5059 65.2197C47.9473 65.8397 48.998 66.8367 50.1546 67.7164C58.3391 73.9582 69.8875 74.0503 78.1868 67.9594C79.211 67.2054 81.0563 65.4795 81.9039 64.4909C84.5614 61.3574 86.1948 57.7046 86.7687 53.616C86.9099 52.5855 86.9099 49.4521 86.7687 48.4216C86.0888 43.5539 83.9522 39.3899 80.3676 35.9549C76.5535 32.2853 71.7416 30.1321 66.3118 29.6545C65.4112 29.5791 63.3717 29.5624 62.6477 29.6294ZM65.6496 33.9274C65.6496 34.6214 65.0869 35.1841 64.3929 35.1841H64.2576C63.5635 35.1841 63.0009 34.6214 63.0009 33.9274V33.9274C63.0009 33.2333 63.5635 32.6707 64.2576 32.6707H64.3929C65.0869 32.6707 65.6496 33.2333 65.6496 33.9274V33.9274ZM59.6458 38.2002C59.6458 38.8943 59.0832 39.457 58.3891 39.457H58.1952C57.5335 39.457 56.9971 38.9206 56.9971 38.2589V38.2589V38.2589C56.9971 37.5324 57.586 36.9435 58.3125 36.9435L58.3618 36.9435L58.3891 36.9435C59.0832 36.9435 59.6458 37.5062 59.6458 38.2002V38.2002ZM79.1396 45.4229C79.1252 46.0919 78.5855 46.6305 77.9165 46.6434L77.7822 46.646C77.0832 46.6595 76.5093 46.0966 76.5093 45.3975V45.3975C76.5093 44.7078 77.0684 44.1487 77.7581 44.1487H77.8924C78.5918 44.1487 79.1545 44.7236 79.1396 45.4229V45.4229ZM83.5726 51.0188C83.5726 51.7129 83.0099 52.2755 82.3158 52.2755H82.1806C81.4865 52.2755 80.9238 51.7129 80.9238 51.0188V51.0188C80.9238 50.3247 81.4865 49.7621 82.1806 49.7621H82.3158C83.0099 49.7621 83.5726 50.3247 83.5726 51.0188V51.0188ZM65.6496 68.1102C65.6496 68.8043 65.0869 69.3669 64.3929 69.3669H64.2576C63.5635 69.3669 63.0009 68.8043 63.0009 68.1102V68.1102C63.0009 67.4161 63.5635 66.8535 64.2576 66.8535H64.3929C65.0869 66.8535 65.6496 67.4161 65.6496 68.1102V68.1102Z" fill="#C89D83"/>
<path d="M35.8225 67.1114C34.1124 68.4834 31.9601 69.587 29.3656 70.4221C26.83 71.2573 24.3239 71.6749 21.8473 71.6749C17.4248 71.6749 13.5624 70.8695 10.2603 69.2589C7.01706 67.5886 4.48148 65.2323 2.6535 62.1899C0.884483 59.0879 -2.28882e-05 55.3596 -2.28882e-05 51.0049C-2.28882e-05 46.6501 0.972934 42.9516 2.91885 39.9093C4.86476 36.8073 7.40035 34.4509 10.5256 32.8403C13.7098 31.2296 17.0415 30.4243 20.5205 30.4243C23.9996 30.4243 27.0069 30.9016 29.5425 31.856C32.137 32.8105 34.3483 34.0632 36.1763 35.6142L30.1616 43.6674C29.3361 43.0113 28.1862 42.3551 26.7121 41.6989C25.2969 40.983 23.6163 40.6251 21.6704 40.6251C19.9603 40.6251 18.3977 41.0725 16.9825 41.9673C15.5673 42.8621 14.4469 44.085 13.6214 45.636C12.7958 47.187 12.3831 48.9766 12.3831 51.0049C12.3831 52.9138 12.8253 54.6736 13.7098 56.2842C14.5943 57.8949 15.8032 59.1774 17.3363 60.1319C18.9284 61.0267 20.7859 61.4741 22.9087 61.4741C24.2649 61.4741 25.5032 61.2951 26.6236 60.9372C27.803 60.5196 28.8054 59.9529 29.6309 59.2371L35.8225 67.1114Z" fill="#C89D83"/>
</svg>
