<?xml version="1.0" standalone="no"?>
<!DOCTYPE svg PUBLIC "-//W3C//DTD SVG 20010904//EN"
 "http://www.w3.org/TR/2001/REC-SVG-20010904/DTD/svg10.dtd">
<svg version="1.0" xmlns="http://www.w3.org/2000/svg"
 width="256.000000pt" height="256.000000pt" viewBox="0 0 256.000000 256.000000"
 preserveAspectRatio="xMidYMid meet">
<metadata>
Created by potrace 1.14, written by Peter Selinger 2001-2017
</metadata>
<g transform="translate(0.000000,256.000000) scale(0.100000,-0.100000)"
fill="#000000" stroke="none">
<path d="M1100 2051 c-168 -36 -324 -123 -439 -247 -166 -177 -243 -435 -197
-664 10 -50 28 -101 42 -124 l26 -38 23 50 c30 64 95 128 165 161 47 22 69 26
147 26 l93 0 0 71 c0 87 30 153 96 214 69 64 123 84 224 85 102 0 161 -23 229
-88 64 -62 91 -125 91 -217 0 -92 -27 -155 -91 -217 -66 -63 -128 -87 -224
-87 -100 -1 -135 12 -227 79 -84 62 -137 80 -212 72 -199 -20 -295 -240 -169
-387 74 -86 253 -188 393 -225 36 -9 112 -19 170 -22 235 -12 454 67 622 225
272 256 326 637 137 960 -50 85 -199 229 -289 279 -186 104 -403 137 -610 94z
m208 -107 c29 -20 28 -50 -2 -69 -49 -32 -101 31 -56 67 27 22 30 22 58 2z
m-216 -161 c34 -31 16 -73 -32 -73 -47 0 -65 37 -33 72 20 22 41 23 65 1z
m726 -289 c4 -38 -18 -59 -53 -50 -15 4 -27 16 -31 31 -9 35 12 57 50 53 27
-3 31 -7 34 -34z m150 -180 c29 -20 28 -50 -3 -70 -23 -15 -27 -15 -50 0 -31
20 -32 50 -3 70 12 9 25 16 28 16 3 0 16 -7 28 -16z m-656 -631 c25 -22 23
-50 -6 -68 -49 -32 -101 31 -56 67 27 22 38 23 62 1z"/>
</g>
</svg>
